<?xml version="1.0" standalone="no"?>
<!DOCTYPE svg PUBLIC "-//W3C//DTD SVG 20010904//EN"
 "http://www.w3.org/TR/2001/REC-SVG-20010904/DTD/svg10.dtd">
<svg version="1.0" xmlns="http://www.w3.org/2000/svg"
 width="1154.000000pt" height="1154.000000pt" viewBox="0 0 1154.000000 1154.000000"
 preserveAspectRatio="xMidYMid meet">
<metadata>
Created by potrace 1.11, written by Peter Selinger 2001-2013
</metadata>
<g transform="translate(0.000000,1154.000000) scale(0.100000,-0.100000)"
fill="#000000" stroke="none">
<path d="M40 8746 c0 -3 20 -58 44 -123 25 -65 52 -138 61 -163 9 -25 27 -74
40 -110 63 -171 95 -266 95 -279 0 -8 23 -62 52 -120 29 -58 51 -109 50 -113
-1 -5 2 -8 8 -8 5 0 23 -21 41 -46 34 -50 98 -122 143 -163 16 -14 38 -35 50
-46 12 -11 37 -31 56 -45 19 -13 37 -27 40 -30 28 -34 233 -139 338 -173 177
-59 141 -57 1178 -57 752 0 955 -3 951 -13 -2 -6 -17 -12 -33 -13 -16 -1 -48
-6 -72 -13 -24 -7 -49 -10 -55 -8 -7 2 -19 1 -27 -4 -9 -4 -36 -10 -60 -14
-25 -3 -58 -9 -75 -12 -16 -4 -43 -7 -60 -8 -16 -2 -43 -8 -58 -14 -16 -6 -32
-9 -36 -7 -4 3 -27 0 -52 -6 -24 -5 -59 -12 -78 -14 -18 -2 -49 -8 -68 -15
-19 -6 -37 -9 -39 -6 -3 2 -22 0 -42 -5 -20 -5 -51 -11 -68 -12 -17 -2 -39 -6
-50 -10 -10 -3 -37 -8 -59 -11 -22 -3 -53 -9 -70 -12 -16 -4 -33 -7 -37 -7
-17 -2 -19 -19 -8 -68 7 -29 15 -60 18 -68 3 -8 6 -19 7 -25 0 -5 6 -19 12
-30 6 -11 12 -23 12 -27 1 -4 9 -25 18 -45 9 -21 16 -41 15 -45 -1 -5 2 -8 6
-8 5 0 14 -12 21 -27 15 -34 63 -107 74 -111 4 -2 7 -9 7 -16 0 -24 167 -179
258 -239 51 -34 96 -62 100 -62 4 -1 16 -6 27 -12 31 -17 188 -69 205 -68 8 1
21 -3 29 -9 16 -13 306 -16 341 -4 13 5 43 12 65 15 22 3 46 10 53 15 6 6 12
8 12 4 0 -4 14 0 30 9 17 9 30 13 30 10 0 -4 12 0 28 8 15 8 47 25 72 37 47
24 148 93 189 129 13 12 28 21 33 21 10 0 9 -77 -1 -95 -8 -14 -12 -36 -12
-65 0 -14 -4 -45 -9 -70 -5 -25 -12 -63 -14 -85 -2 -22 -7 -51 -10 -65 -4 -14
-8 -41 -10 -60 -2 -19 -6 -46 -9 -60 -3 -14 -9 -43 -11 -65 -3 -22 -10 -65
-15 -95 -5 -30 -7 -63 -5 -72 1 -10 0 -18 -5 -18 -4 0 -8 -15 -9 -33 -2 -31
-5 -46 -17 -107 -2 -14 -7 -47 -10 -74 -3 -27 -7 -52 -10 -56 -3 -4 -7 -32 -9
-61 -2 -30 -6 -61 -10 -69 -3 -8 -8 -39 -11 -68 -3 -30 -7 -57 -9 -60 -2 -4
-5 -27 -7 -52 -1 -25 -6 -52 -10 -60 -4 -9 -10 -40 -13 -70 -3 -30 -10 -73
-14 -95 -10 -51 -5 -75 16 -76 9 0 97 -1 195 -1 l177 -1 -5 -31 c-2 -17 -7
-56 -10 -86 -2 -30 -8 -80 -13 -110 -4 -30 -7 -67 -7 -82 1 -16 -2 -28 -5 -28
-3 0 -6 -8 -7 -17 -3 -72 -12 -161 -17 -173 -3 -8 -8 -44 -10 -80 -3 -36 -8
-78 -13 -95 -5 -16 -8 -37 -7 -45 1 -8 2 -25 3 -37 l1 -23 198 0 197 0 100
-202 c55 -112 98 -204 97 -207 -2 -2 0 -7 5 -10 12 -8 103 -192 103 -208 0 -6
3 -13 8 -15 6 -2 64 -113 68 -128 0 -3 25 -55 55 -117 33 -68 62 -115 74 -120
11 -5 108 -8 215 -8 198 2 224 0 214 -16 -3 -5 -2 -9 3 -9 4 0 22 -13 38 -28
83 -76 237 -168 278 -166 9 1 17 -2 17 -5 0 -25 280 -47 360 -28 19 4 49 10
65 13 17 3 36 10 42 16 7 6 20 8 28 4 8 -3 15 -2 15 3 0 4 24 18 53 31 52 24
146 87 180 122 10 10 23 18 29 18 6 0 8 3 5 6 -3 4 4 14 16 24 19 14 49 16
229 16 196 -1 207 0 219 19 13 21 88 171 224 450 44 88 84 163 89 167 6 4 8 8
5 8 -4 0 34 82 85 183 l91 182 198 3 197 2 1 28 c1 37 -2 82 -8 107 -3 11 -7
49 -8 84 -2 35 -7 71 -10 80 -4 9 -9 43 -11 76 -2 33 -7 71 -10 85 -3 14 -8
57 -10 95 -2 39 -7 77 -10 85 -4 8 -8 42 -10 75 -2 33 -6 71 -10 85 -4 14 -8
52 -10 85 -2 33 -6 74 -9 92 l-6 31 158 0 c87 1 175 1 196 1 l39 1 -5 53 c-11
110 -22 192 -28 192 -1 0 -3 19 -4 42 -1 23 -6 50 -10 60 -4 10 -9 41 -11 68
-2 28 -7 57 -10 65 -3 8 -8 33 -10 55 -2 22 -7 51 -10 65 -3 14 -8 45 -10 70
-3 25 -7 52 -10 60 -3 8 -8 33 -10 55 -2 22 -6 51 -10 65 -3 14 -8 45 -10 70
-3 25 -7 52 -10 60 -3 8 -8 40 -11 70 -3 30 -9 62 -13 70 -4 8 -8 33 -9 55 -2
50 -5 67 -12 80 -3 6 -7 30 -8 54 -1 25 -4 48 -7 53 -9 15 -13 68 -5 68 4 0
17 -9 29 -20 32 -30 196 -140 201 -135 2 3 9 1 15 -4 16 -13 136 -61 136 -54
0 3 6 1 13 -5 6 -6 32 -13 57 -17 24 -4 49 -9 54 -13 16 -9 275 -10 320 0 23
4 52 11 66 13 28 6 88 24 110 32 8 4 17 7 20 8 7 2 57 24 83 35 12 6 34 18 49
28 14 9 46 29 70 44 123 75 257 223 338 373 36 67 83 185 74 185 -4 0 -2 6 4
13 6 7 13 24 15 37 2 14 7 33 11 42 10 21 4 53 -9 54 -6 0 -23 3 -40 7 -16 3
-50 9 -75 13 -24 3 -48 8 -53 11 -5 3 -26 6 -47 8 -21 2 -47 6 -57 9 -10 3
-38 8 -62 11 -23 3 -47 7 -52 10 -4 3 -31 8 -59 10 -28 3 -58 8 -68 13 -9 5
-28 7 -42 6 -14 -1 -36 3 -50 9 -14 5 -41 11 -60 12 -19 1 -44 4 -55 8 -11 3
-42 9 -69 12 -27 3 -53 8 -58 11 -6 4 -26 8 -46 10 -20 2 -50 7 -67 11 -16 4
-34 6 -39 5 -14 -4 -46 9 -46 19 0 5 371 9 954 9 1037 0 1000 -2 1178 57 103
34 338 153 338 172 0 3 18 17 40 31 59 36 220 205 272 285 48 75 128 234 128
257 0 12 33 108 95 278 13 36 31 85 40 110 9 25 37 99 61 164 25 65 42 121 39
124 -3 3 -6 3 -8 1 -2 -2 -26 -33 -52 -69 -45 -59 -111 -143 -154 -195 -9 -11
-32 -40 -51 -65 -19 -25 -37 -47 -40 -50 -3 -3 -21 -25 -41 -50 -52 -64 -68
-80 -121 -123 -26 -21 -53 -43 -60 -50 -63 -59 -320 -196 -438 -232 -221 -68
-133 -65 -1753 -65 -1338 0 -1468 1 -1474 16 -3 9 -21 33 -39 53 -19 20 -34
42 -34 49 0 7 -4 10 -10 7 -6 -3 -10 0 -10 7 0 7 -41 53 -90 102 -50 49 -90
94 -90 99 0 6 -3 7 -6 4 -4 -4 -14 1 -23 11 -9 10 -36 33 -61 52 -25 19 -47
37 -50 40 -3 3 -21 17 -40 30 -19 13 -38 29 -42 35 -5 6 -8 6 -8 0 0 -6 -3 -6
-8 0 -18 26 -302 184 -302 169 0 -4 -9 1 -20 11 -11 10 -20 15 -20 10 0 -4 -6
-3 -12 2 -11 9 -68 31 -103 39 -5 2 -29 10 -52 18 -22 8 -52 17 -65 20 -12 2
-51 11 -86 20 -35 9 -82 19 -105 21 -23 2 -73 8 -112 12 -83 10 -283 8 -322
-2 -16 -4 -52 -9 -82 -11 -29 -2 -57 -6 -61 -9 -4 -3 -25 -7 -46 -11 -22 -3
-47 -10 -57 -16 -10 -5 -21 -7 -24 -4 -3 2 -17 0 -32 -6 -94 -37 -155 -57
-163 -52 -4 3 -8 0 -8 -5 0 -6 -4 -11 -9 -11 -5 0 -31 -10 -58 -22 -26 -11
-54 -22 -60 -24 -7 -1 -20 -9 -29 -18 -8 -9 -22 -16 -29 -16 -7 0 -20 -6 -27
-13 -11 -11 -42 -28 -58 -31 -5 -1 -156 -103 -175 -118 -5 -4 -37 -29 -70 -55
-71 -56 -246 -229 -295 -293 -19 -25 -37 -47 -40 -50 -3 -3 -13 -17 -23 -32
l-17 -28 -1468 0 c-1619 0 -1531 -3 -1752 65 -118 36 -375 173 -438 232 -7 7
-34 29 -60 50 -53 43 -69 59 -121 123 -20 25 -38 47 -41 50 -3 3 -21 25 -40
50 -19 25 -43 54 -52 65 -39 48 -151 190 -176 226 -23 33 -42 49 -42 35z"/>
</g>
</svg>
