<?xml version="1.0" encoding="UTF-8" standalone="no"?>
<svg width="40px" height="35px" viewBox="0 0 40 35" version="1.1" xmlns="http://www.w3.org/2000/svg" xmlns:xlink="http://www.w3.org/1999/xlink">
    <!-- Generator: Sketch 39.1 (31720) - http://www.bohemiancoding.com/sketch -->
    <title>Shape</title>
    <desc>Created with Sketch.</desc>
    <defs></defs>
    <g id="Page-1" stroke="none" stroke-width="1" fill="none" fill-rule="evenodd">
        <g id="Artboard" fill="#D8D8D8">
            <path d="M32.5,0 L7.5,0 L0,11.25 L20,35 L40,11.25 L32.5,0 L32.5,0 Z M7.56,4.4175 L13.75,11.25 L8.9175,2.5 L18.58,2.5 L13.75,11.25 L20,4.35 L26.25,11.25 L21.4175,2.5 L31.08,2.5 L26.25,11.25 L32.44,4.4175 L36.7325,11.25 L26.25,11.25 L13.75,11.25 L3.2675,11.25 L7.56,4.4175 L7.56,4.4175 Z M21.93,28.825 L26.25,12.5 L20,27.93 L13.75,12.5 L18.07,28.8225 L4.3225,12.5 L13.75,12.5 L26.25,12.5 L35.68,12.5 L21.93,28.825 L21.93,28.825 Z" id="Shape"></path>
        </g>
    </g>
</svg>